<svg xmlns="http://www.w3.org/2000/svg" version="1.1" xmlns:xlink="http://www.w3.org/1999/xlink" xmlns:svgjs="http://svgjs.dev/svgjs" width="2000" height="303" viewBox="0 0 2000 303"><g transform="matrix(1,0,0,1,-1.2121212121212466,-0.39635684713815067)"><svg viewBox="0 0 396 60" data-background-color="#ffffff" preserveAspectRatio="xMidYMid meet" height="303" width="2000" xmlns="http://www.w3.org/2000/svg" xmlns:xlink="http://www.w3.org/1999/xlink"><g id="tight-bounds" transform="matrix(1,0,0,1,0.2400000000000091,0.07848650438378968)"><svg viewBox="0 0 395.52 59.843026991232406" height="59.843026991232406" width="395.52"><g><svg viewBox="0 0 497.038134025845 75.20293909329601" height="59.843026991232406" width="395.52"><g><rect width="4.907292805258016" height="65.2992235252932" x="408.3663162441309" y="4.951857784001405" fill="#fe6d98" opacity="1" stroke-width="0" stroke="transparent" fill-opacity="1" class="rect-yte-0" data-fill-palette-color="primary" rx="1%" id="yte-0" data-palette-color="#fe6d98"></rect></g><g transform="matrix(1,0,0,1,0,10.393459744442502)"><svg viewBox="0 0 395.52 54.416019604411005" height="54.416019604411005" width="395.52"><g id="textblocktransform"><svg viewBox="0 0 395.52 54.416019604411005" height="54.416019604411005" width="395.52" id="textblock"><g><svg viewBox="0 0 395.52 54.416019604411005" height="54.416019604411005" width="395.52"><g transform="matrix(1,0,0,1,0,0)"><svg width="395.52" viewBox="-0.85 -34.55 285.62 39.3" height="54.416019604411005" data-palette-color="#fe6d98"><path d="M39.55-21.4L39.55-21.4Q37.7-20.65 36.38-20.65 35.05-20.65 35.05-21.2L35.05-21.2Q35.05-21.55 36.52-21.6 38-21.65 38.65-21.95L38.65-21.95Q40.55-22.95 40.55-24.9L40.55-24.9Q40.55-25.9 40-27L40-27Q38.4-29.85 32.25-29.85L32.25-29.85Q28.7-29.85 25.15-28.78 21.6-27.7 19.2-25.48 16.8-23.25 16.8-21.35L16.8-21.35Q16.8-18.45 22.55-17.1L22.55-17.1 28.45-16Q32-15.35 33.75-14.2L33.75-14.2Q36.05-12.8 36.05-10.2L36.05-10.2Q36.05-9.15 35.7-7.95L35.7-7.95Q34.1-2.55 27.45 0.3L27.45 0.3Q21.9 2.75 14.35 2.75L14.35 2.75Q12.2 2.75 10.6 2.55L10.6 2.55Q12.2 3.45 14.8 4.1L14.8 4.1Q15 4.15 15 4.3L15 4.3Q15 4.75 13.95 4.75L13.95 4.75Q11.9 4.75 8.85 2.3L8.85 2.3Q4.7 1.65 2.65 0L2.65 0Q1.35-1.05 0.25-3.1-0.85-5.15-0.85-6.8-0.85-8.45-0.2-9.55L-0.2-9.55Q1.3-12.2 3.6-12.2L3.6-12.2Q5.35-12.2 5.65-9.25L5.65-9.25Q6.35-3.55 6.6-2.75L6.6-2.75Q7.35-0.3 9.15 1.4L9.15 1.4Q11.25 1.85 13.7 1.85L13.7 1.85Q19.1 1.85 24.3-0.3 29.5-2.45 31.8-6.4L31.8-6.4Q32.75-7.95 32.75-9.15L32.75-9.15Q32.75-11.5 28.6-12.8L28.6-12.8 19.8-14.8Q17.1-15.45 15.48-16.95 13.85-18.45 13.85-20.4L13.85-20.4Q13.85-23.4 17.6-26.4L17.6-26.4Q20.45-28.7 24.58-29.98 28.7-31.25 32.68-31.25 36.65-31.25 39.25-30.1L39.25-30.1Q42.6-28.55 42.6-25.58 42.6-22.6 39.55-21.4ZM7.35 0.9L7.35 0.9Q4.45-2.3 3.65-7.85L3.65-7.85Q3.2-11 2.8-11 2.4-11 2.05-10.78 1.7-10.55 1.35-9.8 1-9.05 1-7.85L1-7.85Q1-4 3.7-1.25L3.7-1.25Q5.05 0.15 7.35 0.9ZM51.4 0.3L51.4 0.3Q51.15 0.35 50.32 0.35 49.5 0.35 48.67-0.3 47.85-0.95 47.85-1.98 47.85-3 48.22-4.25 48.6-5.5 48.75-6.15L48.75-6.15Q43 0.55 39.75 0.55L39.75 0.55Q37.7 0.55 37.5-2L37.5-2Q37.5-2.2 37.5-2.35L37.5-2.35Q37.5-4.5 40.1-8.15L40.1-8.15Q38.65-6.85 37.15-5.15L37.15-5.15Q36.95-4.95 36.65-4.95L36.65-4.95Q36.45-4.95 36.45-5.2 36.45-5.45 36.9-6.05L36.9-6.05 43.8-14.15Q45.1-15.65 46.45-15.65 47.8-15.65 47.8-14.75L47.8-14.75Q47.8-14.4 47.5-14.1L47.5-14.1Q45.5-12.25 42.47-7.95 39.45-3.65 39.45-1.6L39.45-1.6Q39.45-0.7 40.05-0.7L40.05-0.7Q42.15-0.7 46.15-4.85L46.15-4.85Q47.55-6.25 51.35-11.03 55.15-15.8 56.35-15.8L56.35-15.8Q58.15-15.8 58.15-14.4L58.15-14.4Q58.15-13.9 56.05-11.5L56.05-11.5Q53.2-8.05 51.7-5.88 50.2-3.7 50.2-2.35 50.2-1 50.95-1L50.95-1Q51.3-1 51.75-1.2L51.75-1.2Q55.2-2.7 60-8.2L60-8.2Q60.3-8.55 60.6-8.55 60.9-8.55 60.9-8.22 60.9-7.9 60.55-7.5L60.55-7.5Q58.4-5 55.5-2.48 52.6 0.05 51.4 0.3ZM66.7-15.8L66.7-15.8Q68.05-15.8 68.05-14.75L68.05-14.75Q68.05-14.45 67.9-14.15L67.9-14.15Q63.4-7.9 62.5-4.7L62.5-4.7Q74.15-16.35 76.65-16.35L76.65-16.35Q76.9-16.4 77.09-16.4L77.09-16.4Q78.5-16.4 78.5-15.15L78.5-15.15Q78.5-14.9 78.4-14.65 78.3-14.4 76.4-11.95L76.4-11.95Q74.2-9.35 72.67-6.95 71.15-4.55 71.15-2.95 71.15-1.35 71.84-1.35L71.84-1.35Q74.05-1.35 79.5-7.4L79.5-7.4Q79.59-7.5 79.84-7.85L79.84-7.85Q80.59-8.75 80.75-8.75 80.9-8.75 80.9-8.25 80.9-7.75 80.2-6.95L80.2-6.95Q74 0.1 71.4 0.1L71.4 0.1Q68.95 0.1 68.95-2.6 68.95-5.3 70.95-8.8L70.95-8.8 74.15-14Q70.75-11.5 68.09-8.53 65.45-5.55 63.27-2.75 61.1 0.05 60.75 0.05L60.75 0.05Q60 0.05 59.57-0.58 59.15-1.2 59.15-2.13 59.15-3.05 59.8-4.6 60.45-6.15 61.45-8.35L61.45-8.35 58.45-5.2Q57.35-4.1 57.07-4.1 56.8-4.1 56.8-4.42 56.8-4.75 57.2-5.15L57.2-5.15Q59.05-7 60.4-8.7L60.4-8.7Q61.7-10.4 65.75-15.2L65.75-15.2Q66.2-15.8 66.7-15.8ZM81.34 0.65L81.34 0.65Q80.79 0.65 80.34 0.5L80.34 0.5Q77.14-0.4 77.14-3.1L77.14-3.1Q77.14-6.6 81.54-11.2 85.94-15.8 89.44-15.8L89.44-15.8Q90.59-15.8 91.32-15.18 92.04-14.55 92.04-13.65L92.04-13.65Q92.04-10.85 87.82-8.3 83.59-5.75 80.94-5.75L80.94-5.75Q80.54-5.75 80.24-5.85L80.24-5.85Q79.49-4.5 79.49-3L79.49-3Q79.49-0.4 81.97-0.4 84.44-0.4 88.39-3.75L88.39-3.75Q91.44-6.2 93.59-8.95L93.59-8.95Q94.04-9.55 94.37-9.55 94.69-9.55 94.69-9.25 94.69-8.95 94.29-8.4L94.29-8.4Q91.59-4.85 87.79-2.1 83.99 0.65 81.34 0.65ZM90.79-13.75L90.79-13.75Q90.79-14.35 89.52-14.35 88.24-14.35 85.89-12.4L85.89-12.4Q82.74-9.8 80.99-6.95L80.99-6.95Q81.29-6.85 81.64-6.85L81.64-6.85Q83.54-6.85 86.72-8.88 89.89-10.9 90.69-13.3L90.69-13.3Q90.79-13.55 90.79-13.75ZM102.49-20.4Q103.24-20.4 103.92-19.93 104.59-19.45 104.59-18.8 104.59-18.15 103.97-17.68 103.34-17.2 102.59-17.2 101.84-17.2 101.22-17.75 100.59-18.3 100.59-19L100.59-19Q100.59-20.4 102.49-20.4L102.49-20.4ZM93.44 0.55L93.44 0.55Q90.89 0.55 90.89-2.75L90.89-2.75Q90.89-5.45 93.84-10.23 96.79-15 98.59-15.05L98.59-15.05Q99.09-15.05 99.72-14.65 100.34-14.25 100.34-13.85L100.34-13.85Q100.09-13.5 99.74-13.08 99.39-12.65 98.99-12.15 98.59-11.65 97.89-10.73 97.19-9.8 96.54-8.95L96.54-8.95Q92.79-4.1 92.79-2.27 92.79-0.45 94.04-0.45L94.04-0.45Q95.09-0.45 96.89-1.6L96.89-1.6Q101.09-4.2 103.54-7.3L103.54-7.3Q104.44-8.45 104.77-8.45 105.09-8.45 105.09-8.05 105.09-7.65 103.94-6.45 102.79-5.25 102.12-4.55 101.44-3.85 101.19-3.63 100.94-3.4 100.27-2.78 99.59-2.15 99.24-1.9 98.89-1.65 98.24-1.15 97.59-0.65 97.09-0.43 96.59-0.2 95.94 0.1L95.94 0.1Q94.89 0.55 93.44 0.55ZM119.34-15.15L119.34-15.15Q124.94-24.25 127.14-24.25L127.14-24.25Q127.49-24.25 128.11-24.03 128.74-23.8 128.74-23.35L128.74-23.35Q128.74-23.1 128.49-22.7L128.49-22.7Q124.49-17.8 122.54-15.35L122.54-15.35Q116.64-7.9 116.04-4.65L116.04-4.65Q115.89-3.95 115.89-3.25L115.89-3.25Q115.89-1 117.74-1L117.74-1Q121.44-1 127.39-7.85L127.39-7.85Q127.89-8.35 128.24-8.43 128.59-8.5 128.59-8.25 128.59-8 128.29-7.65L128.29-7.65Q122.49-0.7 117.99 0.1L117.99 0.1Q117.74 0.15 117.29 0.15L117.29 0.15Q115.74 0.15 114.96-0.93 114.19-2 114.19-3.25L114.19-3.25Q114.19-4.65 114.74-6.35L114.74-6.35 110.69-2.3Q107.94 0.25 106.36 0.25 104.79 0.25 103.74-0.6L103.74-0.6Q102.49-1.55 102.49-3.25L102.49-3.25Q102.49-6.9 107.59-11.98 112.69-17.05 116.94-17.05L116.94-17.05Q118.34-17.05 118.89-16.3L118.89-16.3Q119.09-16.05 119.34-15.15ZM104.59-2.65L104.59-2.65Q104.59-0.85 105.84-0.85L105.84-0.85Q107.99-0.85 112.99-6.75L112.99-6.75Q113.89-7.8 118.99-14.6L118.99-14.6Q118.64-15.2 117.79-15.2L117.79-15.2Q114.69-15.2 109.64-10.48 104.59-5.75 104.59-2.65ZM137.14-20.4Q137.89-20.4 138.56-19.93 139.24-19.45 139.24-18.8 139.24-18.15 138.61-17.68 137.99-17.2 137.24-17.2 136.49-17.2 135.86-17.75 135.24-18.3 135.24-19L135.24-19Q135.24-20.4 137.14-20.4L137.14-20.4ZM128.09 0.55L128.09 0.55Q125.54 0.55 125.54-2.75L125.54-2.75Q125.54-5.45 128.49-10.23 131.44-15 133.24-15.05L133.24-15.05Q133.74-15.05 134.36-14.65 134.99-14.25 134.99-13.85L134.99-13.85Q134.74-13.5 134.39-13.08 134.04-12.65 133.64-12.15 133.24-11.65 132.54-10.73 131.84-9.8 131.19-8.95L131.19-8.95Q127.44-4.1 127.44-2.27 127.44-0.45 128.69-0.45L128.69-0.45Q129.74-0.45 131.54-1.6L131.54-1.6Q135.74-4.2 138.19-7.3L138.19-7.3Q139.09-8.45 139.41-8.45 139.74-8.45 139.74-8.05 139.74-7.65 138.59-6.45 137.44-5.25 136.76-4.55 136.09-3.85 135.84-3.63 135.59-3.4 134.91-2.78 134.24-2.15 133.89-1.9 133.54-1.65 132.89-1.15 132.24-0.65 131.74-0.43 131.24-0.2 130.59 0.1L130.59 0.1Q129.54 0.55 128.09 0.55ZM148.38-1.8L146.78-0.75Q145.33 0.1 143.21 0.1 141.08 0.1 139.96-1.3 138.83-2.7 138.03-5.75L138.03-5.75Q137.13-4.85 136.78-4.85L136.78-4.85Q136.53-4.85 136.53-5.2 136.53-5.55 136.78-5.8L136.78-5.8Q138.43-7.85 142.38-11.7L142.38-11.7 148.68-17.6Q151.38-20.15 151.88-20.15L151.88-20.15Q153.48-20.15 153.48-18.95L153.48-18.95Q153.48-18.35 153.01-17.78 152.53-17.2 152.31-16.88 152.08-16.55 151.83-16.25L151.83-16.25Q150.93-14.7 150.01-9.85 149.08-5 148.58-3.1L148.58-3.1Q152.73-3.15 157.13-8.5L157.13-8.5Q157.63-9 157.88-9 158.13-9 158.13-8.68 158.13-8.35 157.68-7.8L157.68-7.8Q154.78-4.4 152.28-3.05L152.28-3.05Q150.78-2.3 148.38-1.8L148.38-1.8ZM140.03-6.3L140.03-6.3Q140.03-4.6 141.16-3.53 142.28-2.45 143.68-2.45 145.08-2.45 145.83-3L145.83-3Q146.83-3.55 147.81-7.6 148.78-11.65 148.98-14.75L148.98-14.75 149.18-16.45Q146.43-14.4 143.31-11.15 140.18-7.9 140.08-6.85L140.08-6.85Q140.03-6.55 140.03-6.3ZM179.93-14.3L179.93-14.3Q180.63-14.3 180.63-12.65L180.63-12.65Q180.63-10.15 178.15-7.98 175.68-5.8 172.48-5.8L172.48-5.8Q170.43-5.8 168.53-6.8L168.53-6.8Q164.48-9 164.48-14.45L164.48-14.45Q164.48-18.3 166.58-22L166.58-22Q169.48-27.05 174.9-30 180.33-32.95 185.48-32.95L185.48-32.95Q189.23-32.95 191.63-31.3L191.63-31.3Q194.33-29.45 194.33-25.8L194.33-25.8Q194.33-21.15 189.83-11.23 185.33-1.3 185.33 0L185.33 0Q185.33 0.4 185.58 0.25L185.58 0.25Q186.88-0.6 197.5-13.33 208.13-26.05 212.28-29.05L212.28-29.05Q215.98-31.8 218.45-33.18 220.93-34.55 223.53-34.55L223.53-34.55Q224.23-34.55 224.58-34.5L224.58-34.5Q225.93-34.4 225.93-33.1L225.93-33.1Q225.93-32.45 225.48-32.45L225.48-32.45Q225.43-32.45 224.78-32.68 224.13-32.9 223.68-32.9L223.68-32.9Q216.68-32.9 204.83-20.25L204.83-20.25Q200.38-15.5 194-7.45 187.63 0.6 186.48 1.25L186.48 1.25Q182.43 3.55 181.93 3.55L181.93 3.55Q181.78 3.55 181.78 3.05L181.78 3.05Q181.78 1.4 184.58-5.35L184.58-5.35Q185.73-7.95 187.93-13.15L187.93-13.15 190.23-19.9Q191.43-23.3 191.43-24.85L191.43-24.85Q191.43-28.3 189.43-30.1 187.43-31.9 183.68-31.9 179.93-31.9 175.63-29.25L175.63-29.25Q170.98-26.25 168.68-21.85 166.38-17.45 166.38-14.4 166.38-11.35 167.63-9.6L167.63-9.6Q169.68-6.75 173.08-6.75L173.08-6.75Q175.68-6.75 177.68-8.47 179.68-10.2 179.68-12.85L179.68-12.85Q179.68-13.4 179.55-13.85 179.43-14.3 179.93-14.3ZM210.78-20.4Q211.53-20.4 212.2-19.93 212.88-19.45 212.88-18.8 212.88-18.15 212.25-17.68 211.63-17.2 210.88-17.2 210.13-17.2 209.5-17.75 208.88-18.3 208.88-19L208.88-19Q208.88-20.4 210.78-20.4L210.78-20.4ZM201.73 0.55L201.73 0.55Q199.18 0.55 199.18-2.75L199.18-2.75Q199.18-5.45 202.13-10.23 205.08-15 206.88-15.05L206.88-15.05Q207.38-15.05 208-14.65 208.63-14.25 208.63-13.85L208.63-13.85Q208.38-13.5 208.03-13.08 207.68-12.65 207.28-12.15 206.88-11.65 206.18-10.73 205.48-9.8 204.83-8.95L204.83-8.95Q201.08-4.1 201.08-2.27 201.08-0.45 202.33-0.45L202.33-0.45Q203.38-0.45 205.18-1.6L205.18-1.6Q209.38-4.2 211.83-7.3L211.83-7.3Q212.73-8.45 213.05-8.45 213.38-8.45 213.38-8.05 213.38-7.65 212.23-6.45 211.08-5.25 210.4-4.55 209.73-3.85 209.48-3.63 209.23-3.4 208.55-2.78 207.88-2.15 207.53-1.9 207.18-1.65 206.53-1.15 205.88-0.65 205.38-0.43 204.88-0.2 204.23 0.1L204.23 0.1Q203.18 0.55 201.73 0.55ZM219.27-15.8L219.27-15.8Q220.62-15.8 220.62-14.75L220.62-14.75Q220.62-14.45 220.47-14.15L220.47-14.15Q215.97-7.9 215.07-4.7L215.07-4.7Q226.72-16.35 229.22-16.35L229.22-16.35Q229.47-16.4 229.67-16.4L229.67-16.4Q231.07-16.4 231.07-15.15L231.07-15.15Q231.07-14.9 230.97-14.65 230.87-14.4 228.97-11.95L228.97-11.95Q226.77-9.35 225.25-6.95 223.72-4.55 223.72-2.95 223.72-1.35 224.42-1.35L224.42-1.35Q226.62-1.35 232.07-7.4L232.07-7.4Q232.17-7.5 232.42-7.85L232.42-7.85Q233.17-8.75 233.32-8.75 233.47-8.75 233.47-8.25 233.47-7.75 232.77-6.95L232.77-6.95Q226.57 0.1 223.97 0.1L223.97 0.1Q221.52 0.1 221.52-2.6 221.52-5.3 223.52-8.8L223.52-8.8 226.72-14Q223.32-11.5 220.67-8.53 218.02-5.55 215.85-2.75 213.67 0.05 213.32 0.05L213.32 0.05Q212.57 0.05 212.15-0.58 211.72-1.2 211.72-2.13 211.72-3.05 212.37-4.6 213.02-6.15 214.02-8.35L214.02-8.35 211.02-5.2Q209.92-4.1 209.65-4.1 209.37-4.1 209.37-4.42 209.37-4.75 209.77-5.15L209.77-5.15Q211.62-7 212.97-8.7L212.97-8.7Q214.27-10.4 218.32-15.2L218.32-15.2Q218.77-15.8 219.27-15.8ZM233.92 0.65L233.92 0.65Q233.37 0.65 232.92 0.5L232.92 0.5Q229.72-0.4 229.72-3.1L229.72-3.1Q229.72-6.6 234.12-11.2 238.52-15.8 242.02-15.8L242.02-15.8Q243.17-15.8 243.9-15.18 244.62-14.55 244.62-13.65L244.62-13.65Q244.62-10.85 240.4-8.3 236.17-5.75 233.52-5.75L233.52-5.75Q233.12-5.75 232.82-5.85L232.82-5.85Q232.07-4.5 232.07-3L232.07-3Q232.07-0.4 234.55-0.4 237.02-0.4 240.97-3.75L240.97-3.75Q244.02-6.2 246.17-8.95L246.17-8.95Q246.62-9.55 246.95-9.55 247.27-9.55 247.27-9.25 247.27-8.95 246.87-8.4L246.87-8.4Q244.17-4.85 240.37-2.1 236.57 0.65 233.92 0.65ZM243.37-13.75L243.37-13.75Q243.37-14.35 242.1-14.35 240.82-14.35 238.47-12.4L238.47-12.4Q235.32-9.8 233.57-6.95L233.57-6.95Q233.87-6.85 234.22-6.85L234.22-6.85Q236.12-6.85 239.3-8.88 242.47-10.9 243.27-13.3L243.27-13.3Q243.37-13.55 243.37-13.75ZM252.27-15.8L252.27-15.8Q253.62-15.8 253.62-14.75L253.62-14.75Q253.62-14.45 253.47-14.15L253.47-14.15Q248.97-7.9 248.07-4.7L248.07-4.7Q259.72-16.35 262.22-16.35L262.22-16.35Q262.47-16.4 262.67-16.4L262.67-16.4Q264.07-16.4 264.07-15.15L264.07-15.15Q264.07-14.9 263.97-14.65 263.87-14.4 261.97-11.95L261.97-11.95Q259.77-9.35 258.24-6.95 256.72-4.55 256.72-2.95 256.72-1.35 257.42-1.35L257.42-1.35Q259.62-1.35 265.07-7.4L265.07-7.4Q265.17-7.5 265.42-7.85L265.42-7.85Q266.17-8.75 266.32-8.75 266.47-8.75 266.47-8.25 266.47-7.75 265.77-6.95L265.77-6.95Q259.57 0.1 256.97 0.1L256.97 0.1Q254.52 0.1 254.52-2.6 254.52-5.3 256.52-8.8L256.52-8.8 259.72-14Q256.32-11.5 253.67-8.53 251.02-5.55 248.84-2.75 246.67 0.05 246.32 0.05L246.32 0.05Q245.57 0.05 245.14-0.58 244.72-1.2 244.72-2.13 244.72-3.05 245.37-4.6 246.02-6.15 247.02-8.35L247.02-8.35 244.02-5.2Q242.92-4.1 242.64-4.1 242.37-4.1 242.37-4.42 242.37-4.75 242.77-5.15L242.77-5.15Q244.62-7 245.97-8.7L245.97-8.7Q247.27-10.4 251.32-15.2L251.32-15.2Q251.77-15.8 252.27-15.8ZM277.42-16.1L277.42-16.1 284.62-16.2Q284.77-16.1 284.77-16.05L284.77-16.05Q284.77-15.6 278.54-14.8 272.32-14 271.82-13.85L271.82-13.85Q270.87-13 268.32-8.78 265.77-4.55 265.77-2.6L265.77-2.6Q265.77-0.75 268.32-0.75L268.32-0.75Q269.52-0.75 271.47-1.5 273.42-2.25 274.47-2.9L274.47-2.9Q277.27-4.65 280.47-8.05L280.47-8.05Q281.17-8.75 281.42-8.75L281.42-8.75Q281.57-8.75 281.57-8.45 281.57-8.15 280.82-7.25L280.82-7.25Q278.22-4.05 274.97-2.1L274.97-2.1Q271.07 0.3 267.52 0.3L267.52 0.3Q265.97 0.3 264.99-0.38 264.02-1.05 264.02-3.1 264.02-5.15 265.82-8.72 267.62-12.3 268.57-14.05L268.57-14.05Q267.87-13.9 267.37-13.9L267.37-13.9Q265.92-13.9 265.92-15.05L265.92-15.05Q265.92-15.9 267.12-16.25L267.12-16.25Q267.27-16.25 267.57-16.3L267.57-16.3 270.47-16.3Q271.37-17.45 272.52-18.95L272.52-18.95Q273.92-20.75 274.42-20.75 274.92-20.75 275.67-20.35 276.42-19.95 276.42-19.4 276.42-18.85 274.02-16.15L274.02-16.15Q275.32-16.1 277.42-16.1Z" opacity="1" transform="matrix(1,0,0,1,0,0)" fill="#fe6d98" class="wordmark-text-0" data-fill-palette-color="primary" id="text-0"></path></svg></g></svg></g></svg></g></svg></g><g transform="matrix(1,0,0,1,426.1199252935199,0)"><svg viewBox="0 0 70.91820873232516 75.20293909329601" height="75.20293909329601" width="70.91820873232516"><g><svg xmlns="http://www.w3.org/2000/svg" xmlns:xlink="http://www.w3.org/1999/xlink" version="1.1" x="0" y="0" viewBox="17.536380618085712 12.155 591.4630361097421 627.198" enable-background="new 0 0 612 792" xml:space="preserve" height="75.20293909329601" width="70.91820873232516" class="icon-icon-0" data-fill-palette-color="accent" id="icon-0"><path d="M335.518 440.317C328.184 429.22 317.975 420.464 306.622 414.795 295.253 409.135 282.704 406.53 270.644 407.185 258.533 407.547 247.086 411.962 237.589 416.829 218.055 426.649 202.394 440.462 191.067 455.342 168.188 485.43 162.225 517.768 162.458 541.518 162.772 565.687 168.679 582.301 172.301 591.56 155.125 545.747 164.694 493.006 191.936 458.003 205.273 440.273 222.523 426.843 240.501 418.137 258.282 408.575 279.099 407.288 295.604 412.874 312.339 418.207 325.051 429.005 332.967 440.358 340.9 451.602 345.207 463.82 343.771 473.893 342.609 483.906 337.865 490.607 334.359 494.343 331.906 496.883 329.972 498.291 328.99 498.963 337.094 493.218 342.426 483.811 343.465 473.889 344.735 463.498 340.527 453.451 335.34 444.992 324.867 427.689 306.983 415.352 287.637 411.739 277.994 409.87 268.047 410.093 258.718 412.349 249.319 414.627 240.952 418.952 232.941 423.36 216.998 432.483 203.628 444.609 193.37 457.944 172.686 484.811 164.953 515.602 164.473 540.494 163.933 565.664 169.88 585.237 174.821 597.423 175.964 599.896 176.554 601.142 176.554 601.143 171.792 585.652 168.223 567.038 168.833 546.736 169.44 526.507 174.278 504.649 184.625 484.507 194.856 464.371 210.585 446.114 230.12 433.36 239.803 427.104 250.507 421.357 261.088 418.754 271.858 416.146 283.211 416.552 293.601 419.604 314.6 425.546 330.844 442.171 337.662 459.952 340.889 468.608 340.18 478.134 336.488 485.632 332.925 493.221 326.39 498.67 319.795 501.236 305.952 506.039 294.14 489.343 301.497 483.423 304.367 479.998 308.273 481.614 308.966 483.718 309.095 484.097 309.141 484.423 309.13 484.705 308.989 484.295 308.77 483.905 308.466 483.558A3.486 3.486 0 1 0 309.235 485.066C309.516 484.045 309.074 482.727 308.153 481.981 306.889 480.666 304.646 480.29 302.992 481.222 299.529 482.674 297.348 486.652 297.789 490.471 299.043 498.002 305.513 503.94 313.018 505.171 316.737 505.81 320.809 505.147 324.081 503.536 327.441 502.141 330.542 500.142 333.261 497.748 338.761 493.008 342.686 486.539 344.524 479.619 346.483 472.701 346.259 465.292 344.335 458.496 342.186 451.752 339.229 445.899 335.518 440.317" fill="#fe6d98" data-fill-palette-color="accent"></path><path d="M282.74 39.063C282.545 39.234 282.346 39.402 282.153 39.575 282.179 39.614 282.373 39.429 282.74 39.063" fill="#fe6d98" data-fill-palette-color="accent"></path><path d="M141.473 485.336C140.467 480.944 139.815 476.524 139.45 472.119A388 388 0 0 1 139.439 453.973C139.929 447.394 140.893 440.995 142.12 434.937 145.284 419.376 150.084 405.655 154.621 394.293 162.934 373.864 170.146 360.806 171.434 358.372 158.627 384.205 148.04 411.216 143.276 434.85 138.076 458.584 139.889 478.319 142.26 487.537 142.604 488.472 142.79 488.939 142.791 488.939 143.331 476.926 144.646 461.923 148.001 445.776 151.215 429.647 156.156 412.474 161.216 396.7 171.553 365.212 181.078 339.003 180.85 338.95 159.714 373.151 146.031 404.482 140.721 430.196L140.76 429.714C144.063 388.891 154.293 347.148 170.914 308.161 187.4 269.108 210.247 232.937 236.676 202.162 249.919 186.792 264.008 172.725 278.53 160.133 292.831 147.153 308.422 137.494 323.138 126.688 333.4 119.117 343.049 110.383 349.789 100.234 356.697 93.072 364.926 87.432 373.715 83.885 385.566 78.909 398.803 78.373 408.957 81.924 419.236 85.446 425.389 92.157 428.416 96.84 431.539 101.622 432.316 104.674 432.353 104.661 427.58 94.497 417.539 86.066 406.135 83.637 394.793 80.998 383.765 83.312 374.996 86.733 357.248 93.95 346.975 105.127 342.254 110.484 342.011 111.332 341.914 111.786 341.914 111.786 352.815 112.329 362.765 110.171 372.291 107.603 367.584 106.304 362.58 104.556 357.74 101.482 357.66 101.596 368.971 102.274 380.328 105.368 389.049 102.903 397.072 100.917 404.5 101.013 396.957 97.903 383.854 95.318 363.601 96.067 364.33 95.946 373.109 93.246 384.072 92.912 389.76 92.712 395.945 93.398 401.228 95.141 406.562 96.853 410.791 99.667 414.023 102.454 417.422 103.463 420.697 105.09 423.635 106.94 421 102.39 417.051 97.078 410.408 92.993 403.883 88.872 394.602 86.389 384.268 86.351 385.574 86.222 394.479 84.647 404.822 87.621 416.361 90.598 425.848 101.333 428.336 110.212 434.549 115.239 438.242 119.577 438.299 119.482 438.66 110.94 437.189 102.27 432.984 94.602 428.908 86.909 421.924 80.466 414.045 76.886 397.82 69.594 382.193 73.014 372.039 77.674 365.133 81.026 359.857 84.902 355.799 88.795 356.025 88.218 356.242 87.638 356.445 87.054 361.738 71.27 361.56 55.211 356.572 41.92 351.633 28.38 339.445 20.001 328.304 18.801 316.972 17.466 307.763 21.588 301.068 25.119 290.065 31.554 284.458 37.346 282.74 39.06 292.18 30.779 303.035 23.789 315.017 21.365 327.146 18.534 340.134 23.19 347.363 32.513 354.699 41.863 356.527 54.302 355.775 65.797 355.007 77.485 351.394 88.583 344.677 97.612 336.72 108.376 326.239 116.454 315.226 123.913 317.287 120.091 318.757 115.704 319.582 111.136 317.56 115.177 314.847 118.402 311.77 119.972 311.729 120.047 317.336 113.047 320.586 101.456 320.857 90.653 318.648 79.71 315.309 70.103 317.568 81.281 318.598 96.842 312.212 112.835 312.227 112.867 314.539 104.888 314.832 93.801 315.271 82.758 313.596 68.887 310.444 58.432 308.528 54.509 306.487 50.969 304.46 47.908 308.462 58.608 312.2 74.793 311.542 92.656 311.534 92.663 311.323 84.583 309.573 74.334 307.894 64.078 304.483 51.793 301.075 43.138 296.282 36.843 292.324 33.904 292.379 33.882 298.14 47.514 300.129 60.092 302.219 71.179 304.151 82.279 305.378 91.983 306.122 100.253 306.831 108.518 307.024 115.392 306.579 120.793A55 55 0 0 1 305.675 127.833L305.601 128.182C305.158 127.747 304.74 127.34 304.353 126.968A26 26 0 0 0 303.398 126.462C303.632 127.449 303.909 128.444 304.228 129.447L304.699 130.854C300.419 133.644 296.152 136.439 292.011 139.355 273.611 152.618 257.155 167.074 242.265 182.389A397.8 397.8 0 0 0 167.279 290.356C168.288 280.234 167.993 269.639 166.652 259.866 165.09 248.016 161.779 237.39 158.16 230.276 154.6 223.074 150.815 219.72 150.904 219.703 156.842 233.301 156.615 246.505 157.218 258.053 157.513 269.668 157.267 279.951 157.047 288.774 156.8 297.597 156.472 304.967 156.035 310.734A188 188 0 0 1 155.785 313.838C155.646 313.566 155.572 313.429 155.572 313.428A67 67 0 0 1 155.088 316.689 41 41 0 0 0 154.862 318.46L154.831 319.409 154.825 319.768C154.758 319.946 154.689 320.123 154.623 320.301 154.476 320.297 154.408 320.296 154.62 320.308 147.121 340.312 141.582 360.044 137.78 378.98 124.933 442.703 130.545 497.606 139.673 538.387 149.029 579.428 161.871 607.159 169.632 622.997 132.623 545.494 124.069 457.917 139.45 382.116 143.75 360.479 149.808 339.874 157.185 320.433L158.347 320.487C150.687 340.658 144.871 360.908 140.877 380.76 128.971 438.864 132.37 493.006 141.24 536.131 150.176 579.47 164.356 612.121 174.786 633.003 177.1 637.215 178.287 639.353 178.287 639.353 159.348 598.098 142.21 541.595 139.66 478.772 140.273 481.554 140.925 483.762 141.473 485.336M357.493 57.513C357.511 57.773 357.514 58.033 357.527 58.293 357.498 57.78 357.477 57.51 357.493 57.513M312.52 128.157C323.645 120.637 333.358 113.614 340.432 105.706 352.114 93.357 355.86 80.052 356.911 71.227 357.486 66.777 357.611 63.373 357.603 61.059 357.87 77.551 352.177 94.057 340.683 105.88 332.157 115.151 321.894 122.448 311.441 129.467 311.811 129.045 312.17 128.608 312.52 128.157M307.492 124.649C308.219 121.947 308.625 119.194 308.961 116.491 309.545 111.052 309.594 105.7 309.34 100.549 308.844 90.248 307.404 80.786 305.875 72.79 302.805 56.786 299.14 46.613 299.221 46.587 306.326 65.023 310.146 84.266 310.89 100.303 311.234 108.318 310.705 115.544 309.324 121.351 308.713 124.077 307.918 126.487 307.031 128.534 306.816 128.401 306.611 128.277 306.414 128.159 306.84 127.006 307.16 125.812 307.492 124.649M306.221 128.68C306.274 128.55 306.319 128.416 306.367 128.285L306.93 128.77C306.903 128.83 306.877 128.894 306.848 128.954L306.711 129.266 306.332 128.895C306.285 128.847 306.24 128.804 306.193 128.758zM305.742 129.969L305.756 129.937 305.85 129.684 306.555 129.618 306.537 129.659 306.072 129.961C304.629 130.092 306.568 129.898 305.742 129.969M166.098 298.882C183.941 259.092 207.11 224.9 231.309 197.632 251.272 175.138 271.782 156.874 291.228 142.528 296.494 138.864 301.633 135.444 306.561 132.153 306.877 132.124 307.219 132.091 307.561 132.058 304.679 133.978 301.794 135.892 298.941 137.837 269.931 157.973 244.655 182.42 222.991 208.728 198.53 238.541 179.235 271.063 164.97 304.153A88 88 0 0 0 166.098 298.882M157.521 319.558L157.571 319.425 157.685 319.431 157.707 319.503 157.727 319.567zM158.038 310.913C157.971 311.291 157.902 311.659 157.833 312.026 157.373 313.174 156.919 314.322 156.472 315.469 156.533 315.166 156.595 314.863 156.652 314.559 157.192 311.683 157.572 308.797 157.916 305.952 158.593 300.256 159.009 294.676 159.305 289.318 159.893 278.601 159.954 268.757 159.657 260.419 159.169 243.726 156.682 233.106 156.695 233.106 161.424 252.61 161.211 272.704 160.431 289.176 159.962 297.432 159.125 304.831 158.038 310.913" fill="#fe6d98" data-fill-palette-color="accent"></path><path d="M608.854 195.09C607.549 174.298 595.387 156.341 579.686 147.564 571.357 143.216 561.84 143.226 554.332 146.128 546.732 149.083 541.068 154.366 537.9 160.624 534.885 167.252 537.014 174.415 540.908 178.21 542.758 180.107 545.295 181.596 547.801 181.535 550.27 181.53 552.342 180.361 553.652 178.949 553.662 178.94 553.668 178.93 553.676 178.921A3.486 3.486 0 0 0 554.861 173.454 3.5 3.5 0 0 0 554.139 172.831C553.512 172.11 552.678 171.71 551.859 171.905 551.301 172.032 550.88 172.325 550.613 172.666A3.5 3.5 0 0 0 549.941 173.123 3.487 3.487 0 0 0 549.609 178.042C550.127 178.634 550.799 179.005 551.512 179.155 550.15 179.874 548.559 180.134 547.131 179.801 542.033 178.322 539.061 172.154 539.662 167.22 540.002 162.041 544.029 158.054 548.127 154.918 552.355 151.933 557.293 150.251 562.203 149.991 572.326 149.22 580.494 155.36 586.834 162.767 593.137 170.088 597.029 178.908 598.643 187.771 601.881 205.867 595.602 222.799 584.687 235.031 574.209 247.859 561.842 257.505 549.291 264.201 523.978 277.682 498.895 279.433 480.291 277.118 461.471 274.692 448.56 268.762 441.297 265.112 476.029 284.943 518.416 283.052 549.256 266.814 564.816 258.813 577.824 247.73 587.629 235.378 597.857 223.393 602.453 208.882 601.846 195.503 601.367 182.119 596.092 170.399 589.133 162.181 582.18 153.805 573.908 148.527 566.164 148.225 558.512 147.615 552.607 150.113 549.154 152.231 547.422 153.3 546.197 154.252 545.387 154.944 551.066 149.92 558.73 147.3 566.162 147.92 574.303 148.333 581.246 153.053 586.812 158.795 598.156 170.172 603.73 186.364 602.619 201.694A57.1 57.1 0 0 1 596.699 223.514C593.369 230.186 588.558 236.051 583.744 241.597 573.935 252.573 562.433 261.293 550.404 267.462 526.265 279.963 500.816 282.31 480.818 279.234 460.629 276.176 445.738 268.525 436.687 262.655 434.742 261.557 433.736 261.004 433.736 261.004 443.701 269.892 457.756 278.275 474.9 282.655 491.971 287.082 511.939 287.384 531.449 282.103 550.916 276.854 569.803 266.124 584.422 251.142 591.668 243.61 598.36 235.684 603.084 225.829 607.673 216.127 609.565 205.368 608.854 195.09M551.188 172.423C551.704 172.163 552.37 172.106 552.862 172.32A3.5 3.5 0 0 0 551.188 172.423M544.149 156.085C544.208 156.026 544.269 155.972 544.331 155.914 544.212 156.03 544.153 156.091 544.149 156.085" fill="#fe6d98" data-fill-palette-color="accent"></path><path d="M367.739 182.297C373.704 172.276 374.066 161.087 371.755 152.651 369.484 144.03 364.788 137.873 359.97 133.792 350.124 125.601 339.702 125.476 335.249 125.786 351.228 130.705 361.575 143.273 365.432 154.124 369.328 164.694 367.665 172.478 367.614 172.933 367.403 159.461 360.016 147.414 352.612 139.842 345.116 132.069 337.552 127.878 333.784 125.929 333.145 126.009 332.798 126.077 332.798 126.077 331.159 134.748 332.349 141.577 334.87 147.2 335.725 143.396 337.268 139.068 339.891 134.423 339.868 134.397 338.69 142.866 337.358 151.762 340.419 156.486 344.427 160.365 348.509 164.032 346.407 158.368 344.993 150.066 344.266 136.392 344.542 136.377 351.991 157.449 353.745 168.669 355.599 170.318 357.47 171.918 359.065 173.475 358.917 166.979 357.462 157.068 354.079 145.105 354.077 145.083 356.8 149.709 359.067 156.028 361.399 162.324 362.747 170.38 361.727 176.019 365.37 179.571 367.659 182.331 367.739 182.297" fill="#fe6d98" data-fill-palette-color="accent"></path><path d="M377.37 34.885C381.579 26.16 386.016 20.418 386.05 20.423 375.651 42.273 371.405 63.662 368.171 71.361 368.352 71.968 368.468 72.304 368.468 72.304 377.114 73.237 384.223 69.543 388.79 64.071 384.734 65.103 380.13 65.285 374.893 64.077 374.893 64.097 383.231 63.14 392.202 58.979 395.364 53.003 396.513 46.084 396.403 39.629 393.671 46.16 387.431 54.286 375.202 59.503 375.216 59.514 379.241 56.079 383.784 50.643 388.347 45.255 393.204 37.815 395.667 31.557 395.229 28.769 394.575 26.161 393.892 23.831 390.98 30.248 385.929 39.306 378.134 47.658 378.937 46.506 386.917 30.091 392.671 20.128 390.849 15.151 389.071 12.158 389.093 12.155 372.599 27.386 366.984 37.932 365.636 47.653 364.355 57.078 366.769 65.645 367.786 69.982 369.491 54.99 372.954 43.792 377.37 34.885" fill="#fe6d98" data-fill-palette-color="accent"></path><path d="M503.89 314.858C500.765 314.019 499.411 314.351 496.286 315.666 495.296 315.94 494.923 316.004 494.499 316.004 494.581 316.03 493.903 316.01 493.376 315.773 492.29 315.348 491.608 314.404 491.134 313.608 491.653 316.497 493.36 316.254 494.757 317.08A61 61 0 0 1 499.761 319.765C503.278 321.847 506.636 324.42 509.403 327 514.97 332.139 518.138 337.432 518.103 337.45 504.478 323.496 486.995 319.124 490.605 312.495 490.382 311.972 490.265 311.651 490.265 311.652 488.228 310.851 485.769 311.096 483.677 312.367 480.995 308.216 478.107 304.227 475.089 300.323 459.146 280.241 437.978 265.383 415.292 256.671 392.536 248.045 368.267 245.465 345.509 248.675 322.644 251.511 301.648 261.113 283.855 272.045 247.493 293.756 219.029 322.334 198.531 352.244 157.246 412.751 147.969 476.016 150.632 522.462 153.389 569.646 166.603 601.719 174.601 619.577 155.221 575.799 148.163 527.346 153.086 481.376 157.87 435.33 174.405 391.923 198.675 356.062 222.896 320.067 254.689 291.723 288.504 272.165 321.812 251.128 361.34 245.311 394.366 252.934 427.704 260.123 454.423 278.693 471.651 299.529A137 137 0 0 1 482.042 313.656 10 10 0 0 0 481.688 314.045 178 178 0 0 0 477.446 307.831C454.3 275.602 417.05 254.892 378.829 251.392 359.745 249.491 340.495 251.635 322.704 257.414 304.824 263.21 288.935 272.731 273.92 282.56 243.993 302.637 219.235 327.905 200.614 355.204 162.942 410.053 150.651 471.267 152.54 520.274 154.288 569.833 168.777 607.556 180.128 630.867 182.634 635.611 183.974 637.988 183.964 637.992 170.691 608.996 159.747 572.822 157.602 532.308 155.358 491.933 162.162 447.44 180.413 405.704 198.497 363.993 228.074 325.432 265.645 297.106 284.453 283.254 304.773 270.271 326.362 263.36 348.079 256.345 371.36 255.448 393.046 259.827 430.097 267.02 461.292 290.562 479.335 319.056 478.552 322.75 479.183 326.194 480.241 329.03 479.942 329.026 479.683 329.067 479.507 329.151 479.86 329.229 480.157 329.346 480.417 329.491 480.724 330.261 481.056 330.985 481.399 331.649 481.429 331.327 481.472 331.002 481.524 330.674 481.962 331.631 481.778 332.743 481.372 333.237 480.706 334.31 479.601 334.592 479.612 334.599 482.319 332.838 480.415 329.165 479.235 329.237A3 3 0 0 0 479.052 329.312C477.87 330.921 476.812 331.247 476.364 331.468A17 17 0 0 0 479.265 330.301C479.296 330.299 477.79 331.349 476.097 331.614 475.915 331.797 476.169 332.034 476.526 332.466 476.817 332.041 477.853 331.954 479.812 330.549 479.907 330.755 477.915 332.512 477.06 333.063L477.692 333.79C478.267 333.389 479.224 332.874 480.396 331.757 480.466 331.799 479.511 333.778 478.032 334.196L478.874 335.223C482.913 335.067 484.019 332.685 483.286 331.017 482.985 330.236 482.394 329.716 481.759 329.405A18.5 18.5 0 0 1 483.113 325.446C483.783 326.663 484.424 327.887 485.047 329.118A41.7 41.7 0 0 0 485.094 336.787 24.3 24.3 0 0 0 489.752 340.543C494.584 356.762 492.705 374.033 485.965 387.843 478.608 403.298 465.529 414.881 452.059 419.996 438.164 424.725 423.832 418.746 416.594 409.779 412.875 405.249 410.367 400.212 410.973 395.214 411.361 390.287 414.002 386.148 417.215 383.663 420.387 380.87 424.324 380.6 427.123 382.084 429.764 383.627 431.502 386.258 430.834 388.308A4 4 0 0 1 430.734 388.604 3.487 3.487 0 1 0 429.557 390.914C429.99 390.538 430.303 390.076 430.5 389.578 431.549 388.196 431.541 386.125 430.529 384.689 428.799 381.508 424.815 379.786 421.229 380.572 414.135 382.55 409.209 389.739 409.244 397.065 410.57 411.964 424.356 422.79 438.348 424.658 445.477 425.594 452.85 424.316 459.26 421.125A71.4 71.4 0 0 0 476.324 409.238C486.432 399.722 493.512 387.25 496.654 373.966 499.045 364.016 499.211 353.623 497.281 343.709 498.256 343.96 499.229 344.162 500.197 344.323A21.8 21.8 0 0 1 496.606 340.648 70 70 0 0 0 494.643 333.945 99 99 0 0 0 491.002 325.382 20 20 0 0 1 491.301 321.319C491.244 321.253 491.938 325.667 495.03 330.792 497.974 335.912 502.624 341.531 506.743 344.81A49 49 0 0 0 513.181 344.32C509.263 340.514 503.364 334.451 499.321 326.132 500.378 327.477 510.694 336.715 516.342 343.782 520.623 342.914 523.4 341.946 523.414 341.962 516.974 323.105 509.456 316.646 503.89 314.858M486.581 322.184C486.399 321.852 486.214 321.524 486.028 321.195 486.132 321.088 486.235 320.982 486.341 320.877 486.489 321.148 486.642 321.418 486.788 321.69 486.72 321.844 486.649 322.011 486.581 322.184M487.976 319.526C487.97 319.512 487.962 319.499 487.955 319.485 487.992 319.458 488.027 319.427 488.064 319.401zM494.716 342.917C494.862 342.969 495.005 343.021 495.153 343.07A70.7 70.7 0 0 1 496.489 363.209C494.819 382.721 485.999 396.096 479.38 403.623 474.968 408.531 471.407 411.406 469.458 412.858 484.831 401.101 494.769 382.578 496.183 363.235A70 70 0 0 0 494.716 342.917" fill="#fe6d98" data-fill-palette-color="accent"></path><path d="M184.035 582.823A33.8 33.8 0 0 0 181.586 592.301C181.397 593.786 181.411 595.292 181.427 596.657L181.464 597.674 181.467 597.737 181.468 597.768V597.784C182.892 594.82 181.864 596.971 182.18 596.313L182.178 596.419 182.174 596.635 182.171 597.066 182.179 598.762C182.217 601.005 182.337 603.151 182.583 605.217 182.715 606.228 182.852 607.28 183.11 608.421 183.267 609.288 183.944 611.618 185.574 612.098 185.503 611.662 185.448 611.236 185.39 610.806 186.085 611.763 187.452 611.827 187.767 611.643 188.283 611.122 188.447 610.82 188.453 610.822 187.845 610.117 186.85 608.607 188.453 608.6 190.099 609.579 190.338 610.173 191.235 610.096 192.807 610.126 194.515 609.696 196.161 609.096A21 21 0 0 0 198.609 607.999L199.801 607.32 200.094 607.138 200.24 607.045 200.313 607 200.35 606.978 200.354 606.975C199.624 608.499 201.354 604.894 201.177 605.264L201.184 605.258 201.199 605.247 201.668 604.915C202.893 604.023 203.935 603.091 204.994 602.12 201.08 602.525 196.934 602.549 191.152 602.365 191.535 602.12 199.487 599.762 208.236 598.569 211.567 594.465 214.25 589.429 216.898 584.173 211.708 588.316 204.118 591.422 191.485 597.315 191.514 597.336 195.629 593.17 201.506 589.071 207.29 584.839 214.773 580.736 220.158 577.358 221.29 574.902 222.382 572.517 223.383 570.31 216.936 573.288 207.512 577.615 196.803 584.682 196.773 584.671 200.552 580.557 206.113 576.408 211.685 572.25 219.081 568.244 224.998 566.728 227.213 561.823 228.688 558.427 228.667 558.415 204.697 556.873 189.169 569.885 184.035 582.823M192.094 587.902C189.357 592.619 187.959 598.691 187.062 601.457 186.34 603.365 185.689 605.134 185.25 606.876 185.193 607.162 185.129 607.438 185.073 607.722 183.831 589.563 194.008 577.384 202.51 570.845 211.936 563.742 219.948 562.506 219.903 562.471 207.343 567.731 197.381 577.763 192.094 587.902" fill="#fe6d98" data-fill-palette-color="accent"></path><path d="M150.895 616.709C150.895 616.734 151.011 607.442 147.391 596.67 140.782 591.188 132.62 587.629 124.806 585.599 132.278 590.517 141.182 599.629 145.589 614.544 145.593 614.546 142.148 608.893 136.252 602.255 130.426 595.583 122.083 588.161 114.922 583.69 111.468 583.213 108.197 583.022 105.241 582.931 112.43 587.913 122.744 595.821 131.725 606.805 129.574 604.823 111.232 591.546 100.506 582.909 94.097 583.039 89.995 583.671 89.993 583.655 105.497 605.284 118.799 614.665 130.131 619.843 141.372 624.856 151.763 626.13 156.774 626.794 139.81 618.4 126.452 610.723 116.126 603.188 105.912 595.92 99.55 589.596 99.587 589.551 112.283 598.663 125.146 605.688 135.596 612.039 146.069 618.279 154.29 623.888 158.389 626.935 159.1 626.986 159.493 626.992 159.493 626.992 161.569 617.888 158.612 609.023 152.882 602.117 153.48 606.749 153.028 611.639 150.895 616.709" fill="#fe6d98" data-fill-palette-color="accent"></path><path d="M284.048 141.731C287.127 138.801 287.307 131.576 286.996 128.301 285.174 136.166 280.446 137.126 277.212 135.666 273.862 134.328 271.645 130.832 271.653 130.841 279.504 137.307 285.826 129.902 286.899 127.192A23 23 0 0 0 286.806 126.412C283.141 119.637 280.717 115.977 278.955 114.481A236 236 0 0 1 283.674 126.096C283.656 126.075 280.47 119.956 277.498 113.618 276.036 113.196 274.957 114.472 273.88 116.34 275.632 117.131 278.006 120.227 283.021 128.134 282.871 128.221 275.694 121.053 272.578 119.153L271.283 122.544C273.168 124.16 276.03 126.786 280.038 130.657 280.037 130.707 273.839 128.949 270.62 124.426A155 155 0 0 0 269.057 129.2C275.098 143.387 281.183 144.731 284.048 141.731" fill="#fe6d98" data-fill-palette-color="accent"></path><path d="M138.503 571.519C146.79 580.918 150.264 588.435 150.363 588.347 147.307 563.257 131.328 542.755 114.946 529.624 98.207 516.28 79.716 508.902 62.525 507.509 53.942 506.853 45.568 507.779 38.31 510.692 31.039 513.526 25.235 518.552 22.056 523.807 15.784 534.658 17.671 543.028 18.285 547.208 17.44 536.979 21.344 524.884 31.025 518.424 40.475 511.986 51.671 511.137 61.287 511.968 80.865 514.017 96.718 522.418 108.644 530.779 130.763 546.667 138.922 563.332 140.178 565.68 122.216 536.58 90.15 517.483 61.431 514.228 47.134 512.493 32.378 516.562 25.442 525.989 18.513 535.195 18.802 544.558 18.95 549.951 19.283 551.103 19.478 551.676 19.478 551.677 22.369 544.91 25.841 537.676 30.981 533.305 36.032 528.968 42.37 527.308 50.295 527.262 66.204 527.355 85.228 534.104 101.068 542.601 117.098 551.15 130.331 562.074 138.503 571.519" fill="#fe6d98" data-fill-palette-color="accent"></path><path d="M324.405 278.153C317.607 275.139 310.48 274.884 304.838 276.123 299.119 277.29 294.573 279.443 290.844 281.528 283.427 285.807 278.949 289.814 276.25 292.082 283.088 287.184 290.19 282.544 298.169 279.744 306.007 276.91 315.282 276.384 322.883 279.99 338.174 286.368 346.002 301.058 348.643 312.578 351.483 324.44 351.039 334.379 350.449 341.106 349.856 347.255 349.065 350.864 348.953 351.466 351.145 337.667 351.057 323.243 347.056 310.141 343.283 296.989 333.924 285.776 322.734 281.133 311.187 275.85 299.639 279.574 291.995 283.199 284.064 286.993 278.413 291.045 274.572 293.568 273.86 294.21 273.504 294.548 273.504 294.548 284.476 291.536 298.645 283.47 312.356 285.112 318.815 286.015 325.626 290.046 330.733 295.192 335.907 300.43 339.538 307.332 341.891 314.488 346.565 328.938 346.759 343.749 346.259 354.236 345.671 364.811 344.28 371.406 344.341 371.406 352.21 352.604 354.745 333.073 351.731 315.725 349.077 298.364 337.693 283.226 324.405 278.153" fill="#fe6d98" data-fill-palette-color="accent"></path><path d="M132.927 540.626C113.352 511.642 103.526 481.587 101.535 475.951 113.255 505.35 128.11 532.823 133.848 541.57 134.249 541.968 134.464 542.167 134.464 542.167 133.768 528.069 124.627 508.712 115.365 492.615 106.149 476.515 96.444 464.323 96.463 464.339 107.82 510.143 126.797 534.847 132.927 540.626" fill="#fe6d98" data-fill-palette-color="accent"></path><path d="M559.146 240.895C548.348 251.956 558.379 250.775 561.912 250.845 554.293 249.121 558.697 243.154 558.945 242.629 557.341 247.515 561.066 249.967 562.478 250.834 562.734 250.83 562.881 250.826 562.881 250.826 566.307 249.081 567.869 247.218 568.414 245.904 567.049 246.867 565.256 247.909 562.908 249.011 562.908 249.011 565.867 247.1 568.613 244.802 568.568 243.678 567.695 242.828 566.506 242.219 566.492 243.496 565.42 245.569 561.84 248.663 561.859 248.682 564.719 244.095 564.816 241.557A16 16 0 0 0 562.836 241.102C562.551 242.567 561.797 244.647 560.299 247.129 560.295 247.111 560.506 243.695 561.773 240.962 560.241 240.782 559.146 240.899 559.146 240.895" fill="#fe6d98" data-fill-palette-color="accent"></path><path d="M577.94 230.432C571.124 234.481 575.843 234.617 577.317 236.112 574.397 233.531 577.524 231.541 577.565 231.285 576.114 233.655 577.22 235.303 577.565 236.262 577.677 236.329 577.743 236.366 577.743 236.366 579.638 236.475 580.806 235.964 581.415 235.226 580.562 235.446 579.509 235.544 578.21 235.472 578.192 235.483 580.038 235.295 581.731 234.601 581.946 233.867 581.71 233.094 581.216 232.532 581.04 233.2 580.13 234.332 577.903 235.008 578.241 234.814 580.151 233.133 580.522 231.823 580.247 231.588 579.938 231.412 579.649 231.239 579.278 231.893 578.632 232.978 577.456 233.913 577.493 233.948 578.151 232.142 579.163 230.975 578.479 230.623 577.94 230.432 577.94 230.432" fill="#fe6d98" data-fill-palette-color="accent"></path><path d="M586.231 218.7C580.288 222.997 584.147 222.574 585.841 223.829 583.491 221.897 585.657 220.133 585.987 219.656 584.851 221.898 586.009 223.333 586.3 224.177L586.466 224.297C588.362 224.638 589.638 223.789 590.128 223.098 589.315 223.334 588.265 223.501 586.964 223.46 586.97 223.463 588.735 223.252 590.438 222.433 590.614 221.714 590.311 220.984 589.794 220.411 589.638 221.148 588.856 222.267 586.614 223.026 586.929 222.836 588.806 221.161 589.026 219.736A6 6 0 0 0 588.071 219.195C587.833 219.984 587.235 221.06 586.126 222.013 586.147 222.012 586.772 220.388 587.548 218.985 586.784 218.723 586.231 218.703 586.231 218.7" fill="#fe6d98" data-fill-palette-color="accent"></path><path d="M454.874 300.17C454.382 296.37 450.343 295.708 449.392 295.908A3 3 0 0 0 449.251 296.052C449.015 298.052 448.981 299.232 449.21 299.885 449.458 299.107 449.784 298.128 450.255 296.917A31 31 0 0 1 449.454 300.435C449.796 300.919 450.423 301.024 451.067 301.13 450.837 300.467 450.778 299.373 450.942 296.779 451.019 296.793 451.749 299.932 452.026 301.173 452.422 301.169 452.726 301.176 453.058 301.186 453.065 300.394 452.847 299.061 452.462 297.317 452.466 297.26 454.087 299.551 453.618 301.206 454.417 301.243 455.083 301.315 455.081 301.312 457.124 297.514 455.243 294.911 453.669 294.578 452.005 294.002 450.192 295.158 449.604 295.71 454.987 294.421 455.29 300.427 454.874 300.17" fill="#fe6d98" data-fill-palette-color="accent"></path><path d="M464.46 315.294C464.481 315.748 464.864 316.078 465.327 316.546 465.515 315.861 466.21 315.15 467.614 312.921 467.753 313.026 466.626 316.03 466.089 317.119L466.888 317.833C467.368 317.056 468.009 315.983 468.661 314.229 468.771 314.225 468.681 317.01 467.339 318.213 467.979 318.743 468.487 319.15 468.487 319.147 472.216 317.219 472.56 314.002 471.112 312.501 469.89 310.865 467.649 311.14 466.888 311.32 469.45 311.732 470.558 314.192 470.153 315.679 470.022 317.124 469.071 317.914 468.968 318.034 470.942 314.616 467.604 311.495 466.61 311.393 466.487 311.43 466.419 311.456 466.419 311.456 465.315 313.157 464.716 314.153 464.583 314.781 465.194 314.241 465.94 313.552 466.927 312.71 466.907 312.708 465.913 314.15 464.46 315.294" fill="#fe6d98" data-fill-palette-color="accent"></path><path d="M482.509 352.619C483.073 351.975 484.134 351.599 486.638 351.026 486.632 351.112 483.897 352.571 482.786 353.627 482.917 353.99 483.046 354.38 483.196 354.717 483.927 354.118 485.067 353.456 486.593 352.589 486.624 352.639 485.054 354.538 483.448 355.272 483.817 356.027 484.157 356.533 484.155 356.533 492.604 355.84 489.011 349.993 487.247 349.47 489.966 354.148 484.843 355.885 485.007 355.754 487.872 353.904 487.53 350.271 486.995 349.332A4 4 0 0 0 486.813 349.245C484.829 349.643 483.716 349.893 483.153 350.264 483.991 350.278 484.995 350.337 486.296 350.428 486.284 350.449 484.558 350.612 482.704 350.683 482.358 351.162 482.396 351.823 482.509 352.619" fill="#fe6d98" data-fill-palette-color="accent"></path><path d="M481.034 373.582C481.364 373.703 482.183 374.187 484.077 375.527 484.06 375.548 481.751 374.608 481.118 374.29 481.146 374.59 481.224 374.815 481.253 375.103 481.647 375.468 482.489 375.806 483.735 376.348 483.78 376.33 482.163 376.583 481.298 375.571 481.343 376.242 481.294 376.809 481.296 376.807 483.515 379.967 485.675 379.322 485.757 378.479 486.11 377.529 485.28 375.997 484.909 375.25 485.755 379.174 481.708 377.299 481.952 377.056 484.345 377.957 484.849 375.643 484.774 375.007L484.675 374.837C483.233 373.583 482.304 373.003 481.743 372.83 482.345 373.388 483.097 374.084 483.991 375.021 483.999 375.014 482.636 373.924 481.364 372.752 481.03 372.789 480.974 373.133 481.034 373.582" fill="#fe6d98" data-fill-palette-color="accent"></path><path d="M284.632 423.282C287.14 424.392 287.828 426.853 287.434 428.398 287.211 430.011 286.172 430.93 286.203 430.927 288.118 427.3 285.327 423.815 284.337 423.288 284.206 423.297 284.133 423.306 284.133 423.306 282.744 424.812 282.04 425.78 281.832 426.524A39 39 0 0 1 284.466 424.765 29 29 0 0 1 281.7 427.176C281.713 427.832 282.106 428.405 282.574 429.039 282.776 428.203 283.435 427.244 285.123 425.147 285.189 425.231 283.838 428.383 283.322 429.824L284.132 430.66C284.622 429.797 285.233 428.519 286.028 426.725 286.085 426.72 285.911 429.72 284.581 431.094A36 36 0 0 0 285.723 432.139C289.464 429.897 289.808 426.867 288.664 425.278 287.696 423.573 285.44 423.258 284.632 423.282" fill="#fe6d98" data-fill-palette-color="accent"></path><path d="M299.682 428.843C299.851 428.908 299.486 432.312 299.211 433.849L300.218 434.51C300.447 433.519 300.845 432.134 301.077 430.13 301.165 430.126 301.723 433.166 300.764 434.853 301.509 435.335 302.094 435.657 302.094 435.656 305.301 432.592 304.836 429.39 303.178 427.952 301.545 426.431 299.366 426.859 298.545 427.199 301.423 427.339 302.879 429.847 302.913 431.489 303.022 433.201 302.287 434.318 302.308 434.318 303.426 430.217 299.474 427.282 298.264 427.309 298.142 427.363 298.076 427.399 298.076 427.399 297.353 429.283 297.019 430.42 297.003 431.185 297.493 430.524 298.12 429.677 298.946 428.659 298.928 428.669 298.183 430.34 297.059 431.785 297.228 432.345 297.683 432.779 298.333 433.235 298.269 432.423 298.833 431.36 299.682 428.843" fill="#fe6d98" data-fill-palette-color="accent"></path><path d="M312.338 438.801C312.41 439.323 312.846 439.769 313.409 440.298 313.471 439.463 314.062 438.569 315.413 436.31 315.517 436.401 314.546 439.477 314.253 440.9L315.206 441.566C315.484 440.631 315.964 439.39 316.511 437.604 316.606 437.612 316.692 440.334 315.733 441.885 316.468 442.321 317.046 442.593 317.046 442.593 320.212 439.783 320.296 437.261 318.898 435.788 317.683 434.298 315.425 434.477 314.665 434.682 317.271 435.15 318.309 437.487 318.111 438.903 318.09 440.413 317.257 441.384 317.292 441.394 318.593 437.833 315.45 434.975 314.384 434.755 314.259 434.791 314.192 434.817 314.192 434.817 313.093 436.53 312.526 437.543 312.41 438.217 313.014 437.644 313.745 436.95 314.725 436.092 314.714 436.099 313.691 437.525 312.338 438.801" fill="#fe6d98" data-fill-palette-color="accent"></path><path d="M325.913 449.829L325.807 449.85C325.339 450.766 325.264 451.472 325.393 452.023 325.602 451.621 325.868 451.162 326.29 450.657 326.284 450.65 325.93 451.543 325.525 452.452 325.751 452.883 326.101 453.19 326.46 453.461 326.389 452.973 326.374 452.213 326.704 450.808 326.728 450.82 326.925 452.875 327.007 453.792L327.528 454.14C327.674 453.583 327.584 452.718 327.541 451.569 327.53 451.539 328.313 453.329 327.813 454.33 328.219 454.599 328.545 454.818 328.543 454.814 330.051 452.943 329.324 450.904 328.471 450.37 327.615 449.629 326.547 449.768 326.069 449.807 329.248 450.64 328.797 454.187 328.569 454.015 328.745 451.473 326.48 450.118 325.913 449.829" fill="#fe6d98" data-fill-palette-color="accent"></path><path d="M331.53 463.73C331.689 463.208 332.126 462.641 333.216 461.786 333.22 461.814 332.18 463.361 331.831 464.3L332.198 464.869C332.458 464.35 332.87 463.637 333.456 462.767 333.477 462.778 333.06 464.336 332.407 465.148 332.704 465.528 332.941 465.771 332.941 465.769 336.837 463.297 334.173 460.849 333.234 460.695 335.306 463.018 333.175 465.159 333.222 465.092 334.271 463.253 333.521 461.187 333.089 460.65A1 1 0 0 0 332.989 460.626C332.114 461.226 331.659 461.577 331.436 462.001 331.846 461.804 332.327 461.653 332.956 461.47 332.964 461.475 332.155 461.911 331.298 462.393 331.227 462.813 331.343 463.268 331.53 463.73" fill="#fe6d98" data-fill-palette-color="accent"></path><path d="M472.22 394.127C471.991 394.51 471.813 394.815 471.815 394.815 473.376 396.409 475.063 396.039 475.536 395.461 476.142 394.832 476.106 394.012 476.249 393.501 475.186 395.889 472.382 395.064 472.485 394.898 474.612 395.294 475.837 393.69 476.276 393.344L476.292 393.235C475.788 392.427 474.997 392.136 474.454 392.131 474.769 392.419 475.173 392.81 475.517 393.37 475.519 393.359 474.81 392.725 474.028 392.179 473.552 392.324 473.272 392.561 473.015 392.904 473.417 392.884 474.167 393.036 475.317 393.692 475.327 393.693 473.497 393.399 472.7 393.373L472.386 393.855C472.864 394.017 473.607 394.099 474.601 394.292 474.612 394.279 473.056 394.625 472.22 394.127" fill="#fe6d98" data-fill-palette-color="accent"></path><path d="M457.116 408.47C455.548 412.413 459.173 411.741 459.511 410.87 457.011 411.583 457.13 408.823 457.247 408.972 457.401 410.602 459.175 410.919 459.61 410.769 459.653 410.723 459.675 410.696 459.675 410.696 459.827 409.714 459.899 409.146 459.839 408.851 459.693 409.226 459.509 409.706 459.257 410.302 459.261 410.287 459.433 409.463 459.767 408.614 459.653 408.405 459.403 408.388 459.071 408.34 459.202 408.664 459.101 409.15 458.948 410.39 458.885 410.384 458.759 408.933 458.614 408.338L458.085 408.359C458.159 408.767 458.169 409.357 458.278 410.175 458.247 410.184 457.704 409.196 457.802 408.38 457.411 408.415 457.116 408.47 457.116 408.47" fill="#fe6d98" data-fill-palette-color="accent"></path><path d="M592.194 209.034C591.858 208.976 591.583 208.841 591.585 208.845 589.733 209.597 590.116 211.215 590.606 211.271 591.142 211.569 591.948 211.184 592.331 211.014 590.183 211.268 591.204 208.946 591.396 209.176 590.763 210.5 592.142 210.993 592.456 210.952 592.513 210.923 592.544 210.905 592.544 210.905 593.161 210.166 593.431 209.687 593.528 209.405 593.235 209.698 592.888 210.075 592.417 210.519 592.417 210.525 592.956 209.825 593.571 209.212 593.542 209.032 593.394 209.014 593.179 209.035 593.085 209.172 592.806 209.557 592.146 210.536 592.124 210.522 592.593 209.287 592.821 209.043 592.675 209.044 592.571 209.072 592.427 209.06 592.167 209.186 591.987 209.621 591.698 210.287 591.71 210.332 591.544 209.326 592.194 209.034" fill="#fe6d98" data-fill-palette-color="accent"></path><path d="M593.464 198.247C591.905 201.117 592.665 200.08 593.603 200.086 592.976 199.715 593.45 198.994 593.493 198.714 593.454 199.877 594.044 199.883 594.337 200.311L594.437 200.338C595.362 200.255 595.905 199.805 596.034 199.316 595.704 199.579 595.187 199.796 594.56 199.942 594.554 199.938 595.439 199.665 596.034 198.898 595.941 198.38 595.626 198.182 595.282 198.062 595.37 198.331 595.296 199.133 594.398 199.774 594.575 199.541 595.005 198.548 594.823 197.986L594.339 198.035C594.321 198.348 594.31 198.953 593.98 199.535 594.015 199.555 593.923 198.777 594.083 198.082 593.724 198.157 593.466 198.247 593.464 198.247" fill="#fe6d98" data-fill-palette-color="accent"></path><path d="M593.604 200.086C593.743 200.169 593.931 200.235 594.198 200.274A1 1 0 0 0 593.604 200.086" fill="#fe6d98" data-fill-palette-color="accent"></path></svg></g></svg></g></svg></g><defs></defs></svg><rect width="395.52" height="59.843026991232406" fill="none" stroke="none" visibility="hidden"></rect></g></svg></g></svg>